<?xml version="1.0" encoding="utf-8"?>
<!-- Generator: Adobe Illustrator 16.0.0, SVG Export Plug-In . SVG Version: 6.00 Build 0)  -->
<!DOCTYPE svg PUBLIC "-//W3C//DTD SVG 1.1//EN" "http://www.w3.org/Graphics/SVG/1.1/DTD/svg11.dtd">
<svg version="1.1" id="Calque_1" xmlns="http://www.w3.org/2000/svg" xmlns:xlink="http://www.w3.org/1999/xlink" x="0px" y="0px"
	 width="304.167px" height="141.667px" viewBox="0 0 304.167 141.667" enable-background="new 0 0 304.167 141.667"
	 xml:space="preserve">
<path id="path2911_14_" fill="#454449" d="M111.336,51.559c0,4.674,0,9.347,0,14.021c7.238,0,14.476,0,21.714,0
	c0-2.143,0-4.286,0-6.43c-4.532,0-9.064,0-13.597,0c0-1.792,0-3.583,0-5.376c4.112,0,8.221,0,12.334,0c0-1.931,0-3.864,0-5.796
	c-4.113,0-8.222,0-12.334,0c0-1.478,0-2.954,0-4.428c4.425,0,8.854,0,13.282,0c0-2.003,0-4.005,0-6.008c-7.134,0-14.265,0-21.399,0
	C111.336,42.212,111.336,46.888,111.336,51.559L111.336,51.559z"/>
<path id="path2913_14_" fill="#454449" d="M137.268,51.559c0,4.674,0,9.347,0,14.021c7.238,0,14.475,0,21.714,0
	c0-2.143,0-4.286,0-6.43c-4.569,0-9.136,0-13.703,0c0-1.792,0-3.583,0-5.376c4.112,0,8.223,0,12.332,0c0-1.931,0-3.864,0-5.796
	c-4.109,0-8.22,0-12.332,0c0-1.478,0-2.954,0-4.428c4.428,0,8.855,0,13.282,0c0-2.003,0-4.005,0-6.008c-7.099,0-14.196,0-21.293,0
	C137.268,42.212,137.268,46.888,137.268,51.559L137.268,51.559z"/>
<path id="path2915_14_" fill="#93C01F" d="M163.306,51.559c0,4.674,0,9.347,0,14.021c4.477-0.05,8.96,0.115,13.432-0.128
	c2.552-0.26,5.208-1.094,6.919-3.114c2.361-2.413,3.153-5.875,3.243-9.15c0.186-4.004-0.178-8.317-2.595-11.67
	c-1.938-2.752-5.39-4.072-8.683-3.936c-4.104-0.069-8.212-0.033-12.316-0.042C163.306,42.212,163.306,46.888,163.306,51.559z
	 M172.766,43.972c1.837-0.023,4.078,0.266,5.077,2.029c1.305,2.43,1.066,5.312,0.951,7.971c-0.09,1.857-0.73,4.086-2.665,4.775
	c-1.548,0.49-3.21,0.318-4.812,0.434c0-5.071,0-10.143,0-15.212C171.8,43.97,172.28,43.972,172.766,43.972z"/>
<path id="path2917_14_" fill="#93C01F" d="M203.141,36.939c-3.449-0.006-7.053,1.075-9.441,3.673
	c-2.897,2.943-3.717,7.253-3.664,11.244c0.004,4.041,1.212,8.307,4.28,11.099c2.534,2.35,6.137,3.065,9.494,2.929
	c3.633,0.138,7.422-1.201,9.76-4.067c2.569-3.075,3.229-7.261,3.045-11.152c0.066-3.636-0.962-7.437-3.541-10.101
	C210.548,37.838,206.741,36.896,203.141,36.939z M203.429,43.583c2.265-0.021,4.254,1.723,4.782,3.884
	c0.583,1.897,0.325,3.915,0.331,5.867c-0.089,2.173-0.883,4.647-3.012,5.615c-1.45,0.54-3.2,0.57-4.59-0.176
	c-1.904-1.089-2.688-3.341-2.782-5.428c-0.104-2.571-0.228-5.385,1.169-7.662C200.209,44.323,201.822,43.55,203.429,43.583
	L203.429,43.583z"/>
<path id="path2919_14_" fill="#93C01F" d="M220.755,51.559c0,4.674,0,9.347,0,14.021c1.197,0,2.393-0.048,3.593-0.048
	c1.015,0,2.032,0.048,3.049,0.048c0.017-6.896,0.035-13.793,0.053-20.69c1.616,6.897,3.178,13.822,4.794,20.719h5.932
	c1.695-6.87,3.338-13.937,4.981-20.831c0.017,6.933,0.034,13.867,0.051,20.801c2.178,0,4.358,0,6.538,0c0-9.347,0-18.691,0-28.04
	c-3.498,0-6.994,0-10.489,0c-1.317,5.506-2.552,11.088-3.953,16.54c-1.396-5.493-2.637-11.024-3.954-16.536
	c-3.534-0.004-7.063-0.005-10.594-0.004C220.755,42.212,220.755,46.888,220.755,51.559L220.755,51.559z"/>
<g id="layer1_14_" transform="translate(-220.37886,-333.74656)" >
	<path id="path2899_1_" fill="#93C01F" d="M324.391,399.705c0,0-14.722-31.906-22.148-47.83c-0.639-1.228-1.113-2.562-1.902-3.698
		c-0.018-0.008-0.036-0.023-0.056-0.018l0,0c-4.831,3.858-9.553,7.869-14.327,11.804c-7.501,6.251-15.039,12.463-22.475,18.793
		c4.237,1.026,8.506,1.926,12.757,2.889c6.587-5.406,13.096-10.907,19.746-16.236c0.226-0.125,0.68-0.702,0.748-0.111
		c5.329,11.25,15.974,33.761,15.974,33.761L324.391,399.705z"/>
	<path id="path2901_14_" fill="#454449" d="M313.778,367.264c-0.348,1.562-0.696,3.125-1.046,4.689
		c2.556,5.4,5.033,10.842,7.697,16.19c0.696-2.066,1.076-4.253,1.6-6.379c1.272-5.579,2.5-11.167,3.754-16.75
		c-3.653-0.816-7.308-1.631-10.957-2.446C314.478,364.134,314.129,365.7,313.778,367.264L313.778,367.264z"/>
	<path id="path2903_14_" fill="#454449" d="M326.847,358.388c-0.306,0.189,0.263,0.552,0.358,0.75
		c0.837,0.922,1.987,2.089,1.427,3.452c-0.329,1.137-1.382,1.838-2.478,2.105c-0.309,0.171-0.136,0.689,0.24,0.502
		c1.08-0.375,2.111-1.018,2.904-1.843c0.684-1.194,0.161-2.684-0.792-3.564C328.001,359.292,327.511,358.652,326.847,358.388z"/>
	<path id="path2905_14_" fill="#454449" d="M326.43,355.922c-0.229,0.381-0.487,0.901-0.422,1.357
		c0.447,0.265,0.64-0.543,0.653-0.857C326.689,356.238,326.669,355.953,326.43,355.922z"/>
	<path id="path2907_14_" fill="#454449" d="M308.773,398.837c0,0,0.58-2.602,0.87-3.902c-2.825-5.935-5.647-11.869-8.474-17.803
		c-2.38-0.529-4.76-1.06-7.139-1.59l0,0c-2.377-0.528-4.758-1.06-7.134-1.588c-3.391,2.868-6.779,5.737-10.165,8.607
		c-1.309-0.292-2.621-0.58-3.929-0.866c-1.064,4.774-2.272,10.188-3.338,14.962l7.852,0.389c0,0,0.793-3.552,1.189-5.328
		c2.455,0.547,4.912,1.096,7.367,1.643c-0.312,1.399-0.936,4.198-0.936,4.198L308.773,398.837z M284.474,382.974
		c1.278,0.283,2.552,0.567,3.83,0.854c-0.49,2.197-0.98,4.394-1.47,6.592c-2.555-0.571-5.106-1.139-7.66-1.708
		c0.491-2.199,0.981-4.396,1.472-6.594C281.922,382.405,283.197,382.69,284.474,382.974z"/>
</g>
<path fill="#327BB8" d="M105.548,70.214c-0.495-0.815-1.258-0.663-1.258-0.663L23.1,65.178l-2.694-6.594c0,0-0.609-0.711-1.219-1.22
	c-0.611-0.507-1.626-0.408-1.626-0.408l-5.131,0.001c-0.738-0.511-1.631-0.813-2.597-0.813c-2.527,0-4.575,2.048-4.575,4.575
	c0,2.525,2.047,4.574,4.575,4.574c1.67,0.001,3.115-0.902,3.914-2.236h1.685l0.84,1.753l-0.455-0.024
	c-1.818,0-1.221,1.829-1.221,1.829l14.31,37.997l-5.921,8.795c0,0-0.965,1.601-0.362,3.041c0.815,1.945,2.75,2.018,2.75,2.018
	s0.987,0.003,2.71,0.009c-0.077,0.424-0.123,0.859-0.123,1.306c0,4.019,3.257,7.277,7.277,7.277c4.021,0,7.28-3.259,7.28-7.277
	c0-0.433-0.045-0.854-0.117-1.268c8.197,0.02,18.064,0.039,26.558,0.042c-0.167,0.584-0.261,1.198-0.261,1.835
	c0,3.681,2.985,6.668,6.668,6.668c3.684,0,6.667-2.987,6.667-6.668c0-0.642-0.096-1.261-0.265-1.848
	c3.889-0.013,6.401-0.037,6.638-0.076c0,0,3.254-1.018,3.049-3.66c-0.202-2.645-3.252-2.849-3.252-2.849H31.295l4.652-6.912h56.22
	c0,0,1.065,0.015,1.503-0.425c0.508-0.509,0.937-1.788,0.937-1.788l10.956-31.221C105.562,71.611,105.871,70.745,105.548,70.214z
	 M94.379,77.062L88.34,97.457c0,0-0.183,0.534-0.436,0.786c-0.253,0.255-0.873,0.228-0.873,0.228l-49.799,0.001
	c0,0-0.45-0.001-0.647-0.199c-0.197-0.197-0.338-0.535-0.338-0.535l-9.035-23.927c0,0-0.451-0.902,0-1.239
	c0.449-0.338,0.449-0.338,0.449-0.338l26.896,1.335c-0.682,3.019-1.517,6.715-1.604,7.107c-0.254,1.129-0.504,2.257-0.756,3.385
	c-3.342-0.746-6.686-1.491-10.028-2.238c0.328-1.826,0.887-3.635,1.021-5.485c-0.41-0.731-1.445-0.7-2.155-0.962
	c-1.34-0.254-2.682-0.751-4.053-0.668c-0.53,0.301-0.455,1.108-0.698,1.612c-0.841,3.287-1.706,6.588-2.141,9.953
	c-0.191,0.802,0.557,1.318,1.248,1.456c5.622,1.494,11.313,2.713,17.004,3.908c1.432,0.241,2.855,0.653,4.31,0.698
	c0.946-0.098,1.375-1.021,1.499-1.853c0.493-2.013,2.607-11.311,3.794-16.544l31.413,1.56c0,0,0.76,0.17,0.971,0.592
	C94.59,76.512,94.379,77.062,94.379,77.062z"/>
<g>
	<path fill="#327BB8" d="M114.022,70.302l11.705,30.918l12.15-30.918h4.939v35.266h-3.359V75.094h-0.098l-12.051,30.474h-3.162
		l-11.606-30.474h-0.098l-10.416,30.474h-3.359l12.731-35.266H114.022z"/>
	<path fill="#327BB8" d="M163.808,70.302l13.829,35.266h-3.605l-4.296-10.965h-16.055l-4.247,10.965h-3.556l14.175-35.266H163.808z
		 M168.597,91.737l-6.813-18.076l-7.065,18.076H168.597z"/>
	<path fill="#327BB8" d="M196.997,70.302c1.449,0,2.823,0.182,4.123,0.544c1.302,0.363,2.438,0.914,3.409,1.654
		c0.97,0.741,1.744,1.696,2.32,2.865c0.577,1.169,0.864,2.542,0.864,4.124c0,2.239-0.576,4.183-1.728,5.827
		c-1.154,1.648-2.866,2.7-5.137,3.161v0.1c1.152,0.165,2.105,0.469,2.863,0.914c0.757,0.443,1.374,1.012,1.854,1.703
		c0.477,0.691,0.823,1.49,1.038,2.396c0.212,0.905,0.353,1.885,0.417,2.939c0.034,0.592,0.065,1.316,0.101,2.173
		c0.031,0.856,0.099,1.72,0.196,2.593c0.099,0.872,0.256,1.696,0.47,2.47c0.215,0.773,0.503,1.375,0.864,1.803h-3.703
		c-0.199-0.329-0.355-0.733-0.471-1.211c-0.114-0.478-0.196-0.972-0.245-1.482c-0.051-0.51-0.092-1.011-0.125-1.505
		c-0.032-0.494-0.066-0.922-0.098-1.284c-0.067-1.251-0.174-2.494-0.322-3.729c-0.147-1.234-0.462-2.337-0.939-3.309
		c-0.476-0.973-1.167-1.753-2.072-2.347c-0.906-0.592-2.149-0.855-3.729-0.791h-12.741v15.658h-3.359V70.302H196.997z
		 M196.751,87.046c1.02,0,1.991-0.156,2.914-0.471c0.919-0.312,1.726-0.764,2.418-1.356c0.691-0.593,1.242-1.309,1.654-2.148
		c0.412-0.841,0.617-1.803,0.617-2.891c0-2.172-0.623-3.885-1.876-5.135c-1.252-1.252-3.16-1.878-5.728-1.878h-12.545v13.879
		H196.751z"/>
	<path fill="#327BB8" d="M217.146,70.302v18.966l20.498-18.966h4.542l-15.755,14.57l16.497,20.695h-4.347l-14.668-18.373
		l-6.768,6.271v12.102h-3.359V70.302H217.146z"/>
	<path fill="#327BB8" d="M270.142,70.302v2.865h-20.989V85.91h19.655v2.864h-19.655v13.928h21.236v2.865h-24.596V70.302H270.142z"/>
	<path fill="#327BB8" d="M299.233,70.302v2.865h-12.298v32.4h-3.359v-32.4h-12.25v-2.865H299.233z"/>
</g>
</svg>
